<?xml version="1.0" encoding="UTF-8" standalone="no"?>
<!-- Created with Inkscape (http://www.inkscape.org/) -->

<svg
   xmlns:svg="http://www.w3.org/2000/svg"
   xmlns="http://www.w3.org/2000/svg"
   version="1.1"
   width="31.6401mm"
   height="44.07mm"
   viewBox="0 0 9.39046 13.0795"
   id="svg2"
   xml:space="preserve"
   style="fill-rule:evenodd">
 <defs
   id="defs4">
  <style
   type="text/css"
   id="style6" />
 </defs>
 <g
   id="Layer_x0020_1">
  
  <path
   d="m 4.65206,13.0576 c -0.00792,-0.0036 -2.75994,-1.23874 -3.68779,-1.64261 l -0.00644,-0.0028 -0.003383,-0.0018 c -0.960144,-0.530927 -0.955218,-1.4729396 -0.954031,-1.5301896 l -4.15506e-4,0 0,-9.76041 0,-0.119695 0.119694996,0 9.15107005,0 0.119695,0 0,0.119695 0,9.76041 -3.859e-4,0 c 0.00116,0.057251 0.00611,0.9992606 -0.95406,1.5301596 l -0.00335,0.0019 -0.00647,0.0028 c -0.912332,0.397134 -3.66844,1.63902 -3.67639,1.64261 L 4.701008,13.079562 4.6520674,13.0576 z M 1.06651,11.19919 c 0.856743,0.373065 3.26092,1.45124 3.63383,1.61854 0.370512,-0.166885 2.75305,-1.23945 3.62359,-1.61854 0.857663,-0.476229 0.827658,-1.31383 0.827598,-1.31623 l -4.749e-4,-0.00282 0,-9.64071 -8.91167996,0 0,9.64071 -4.7487e-4,0.00282 c -5.936e-5,0.0024 -0.0300351,0.840004 0.82759803,1.31623 z"
   id="path10"
   style="fill:#ffd500;fill-rule:nonzero" />
  <path
   d="m 4.7007,0.909067 c -0.397164,0.440199 -0.402625,0.991485 -0.402625,1.09305 0,0.583963 0.076186,1.6213 0.076186,2.75658 0,1.7773 -0.85235,2.95965 -0.85235,2.95965 0,0 -0.014513,0.029056 -0.18861,0.029056 -0.174127,0 -0.551317,-0.14145 -0.551317,-0.558558 0,-0.417138 0.460618,-0.533183 0.547666,-0.533183 0.087048,0 0.130587,0.014483 0.130587,0.014483 0,0 -0.087048,-0.761651 -0.28293,-2.4809 -0.380841,-1.83891 -1.76275,-2.4809 -1.76275,-2.4809 l 0,7.95414 1.84256,0 c 0,0 0.134208,1.12074 1.11715,1.83529 0,0 0.311926,0.268387 0.326439,0.355435 0.014513,-0.08705 0.326439,-0.355435 0.326439,-0.355435 0.982908,-0.714521 1.11712,-1.83529 1.11712,-1.83529 l 1.84253,0 0,-7.95414 c 0,0 -1.38191,0.641986 -1.76272,2.48092 -0.195852,1.71921 -0.2829,2.48087 -0.2829,2.48087 0,0 0.043509,-0.014483 0.130558,-0.014483 0.087048,0 0.547636,0.116045 0.547636,0.533183 0,0.417108 -0.37716,0.558588 -0.551257,0.558588 -0.174127,0 -0.18861,-0.029056 -0.18861,-0.029056 0,0 -0.85235,-1.18238 -0.85235,-2.95965 0,-1.13528 0.076156,-2.17262 0.076156,-2.75658 0,-0.101561 -0.00543,-0.652878 -0.402595,-1.09305 l 0,-2.968e-5 z m -0.28293,8.75343 -0.56583,0 c 0,0 0.061673,0.656469 0.56583,1.12436 0,-0.297383 0,-1.12436 0,-1.12436 z m 0.56583,0 0.56583,0 c 0,0 -0.061673,0.656469 -0.56583,1.12436 0,-0.297383 0,-1.12436 0,-1.12436 z m 2.4446,-6.7826 c 0,0 -0.500506,0.623822 -0.645607,1.35651 -0.079777,0.674633 -0.239331,1.98766 -0.239331,1.98766 0,0 0.478722,0.203093 0.587555,0.703599 0.09429,0 0.297413,0 0.297413,0 l -2.97e-5,-4.04777 z m -1.33472,5.42606 c 0.116074,0 0.881347,-0.112424 1.03734,-0.826975 l 0.297383,0 0,1.64668 -1.21865,0 c 0,0 0,-0.449755 -0.116074,-0.819704 z m -0.453376,0.812462 -0.663741,0 c 0,0 0.021428,-0.586931 0.576692,-0.674633 0.04713,0.152342 0.087048,0.337331 0.087048,0.674633 z m -0.939399,-2.6985 c 0,0 -0.243011,0.899481 -0.631123,1.48706 0.145071,0.09429 0.631123,0.42435 0.631123,0.42435 0,0 0.486023,-0.33006 0.631094,-0.42435 C 4.943687,7.319395 4.700705,6.419919 4.700705,6.419919 z m -0.939429,2.6985 0.663741,0 c 0,0 -0.021399,-0.586961 -0.576692,-0.674633 -0.04713,0.152342 -0.087048,0.337331 -0.087048,0.674633 z M 3.3079,8.305957 c -0.116074,0 -0.881376,-0.112424 -1.03737,-0.826975 l -0.297383,0 0,1.64668 1.21868,0 c 0,0 0,-0.449755 0.116074,-0.819704 z M 1.97315,2.879867 c 0,0 0.500506,0.623852 0.645607,1.35654 0.079807,0.674633 0.239391,1.98766 0.239391,1.98766 0,0 -0.478781,0.203064 -0.587614,0.70357 -0.09429,0 -0.297383,0 -0.297383,0 l 0,-4.04777 z"
   id="path12"
   style="fill:#ffd500" />
 </g>
</svg>